<svg width="20" height="20" viewBox="0 0 20 20" fill="none" xmlns="http://www.w3.org/2000/svg">
<g opacity="0.2">
<rect opacity="0.01" y="20" width="20" height="20" transform="rotate(-90 0 20)" fill="black"/>
<path d="M4.16666 10.8333H14.05L11.025 14.4666C10.7304 14.821 10.7789 15.3471 11.1333 15.6416C11.4877 15.9362 12.0138 15.8877 12.3083 15.5333L16.475 10.5333C16.503 10.4935 16.5281 10.4517 16.55 10.4083C16.55 10.3666 16.5917 10.3416 16.6083 10.3C16.6461 10.2044 16.6659 10.1027 16.6667 9.99996C16.6659 9.89722 16.6461 9.79551 16.6083 9.69996C16.6083 9.65829 16.5667 9.63329 16.55 9.59163C16.5281 9.54818 16.503 9.5064 16.475 9.46663L12.3083 4.46663C12.1497 4.27618 11.9145 4.16623 11.6667 4.16663C11.472 4.16625 11.2833 4.23406 11.1333 4.35829C10.9629 4.49958 10.8557 4.70288 10.8354 4.92332C10.8151 5.14376 10.8833 5.36323 11.025 5.53329L14.05 9.16663H4.16666C3.70642 9.16663 3.33333 9.53972 3.33333 9.99996C3.33333 10.4602 3.70642 10.8333 4.16666 10.8333Z" fill="black"/>
</g>
</svg>
