<svg width="76" height="30" viewBox="0 0 76 30" fill="none" xmlns="http://www.w3.org/2000/svg">
<path fill-rule="evenodd" clip-rule="evenodd" d="M52.8928 24.5487C53.7223 23.6605 54.4934 22.8349 55.3634 22.4797C55.558 19.4679 57.1363 16.6737 58.7847 14.1958C58.937 13.9561 59.1246 13.752 59.3092 13.5511C59.4643 13.3824 59.6172 13.216 59.7451 13.0329C60.9456 11.3086 62.6664 9.26339 64.6672 9.26339C65.5076 9.26339 66.548 9.504 67.3884 10.2258C67.7485 10.5466 67.8686 10.707 67.9886 11.0278C68.5889 12.5918 68.829 12.8725 69.7494 12.8725C69.9829 12.8725 70.2588 12.8543 70.5959 12.8321C71.1254 12.7971 71.806 12.7522 72.7106 12.7522C74.5914 12.7522 75.8319 13.474 75.8319 14.1557C75.8319 14.5568 75.5118 14.7172 75.1116 14.8776C74.8608 14.9673 74.7383 15.0571 74.6256 15.1397C74.4867 15.2415 74.3626 15.3324 74.0312 15.3989C73.5526 15.4756 73.1107 15.5982 72.6617 15.7228C72.1719 15.8587 71.6736 15.9969 71.1099 16.0806C70.5497 16.1608 70.0295 16.1608 69.6293 16.1608C69.4692 16.1608 69.3492 16.2811 69.2691 16.6019C68.2287 20.8527 66.8681 24.2212 64.3871 26.9481L64.3045 27.0378C63.3558 28.0693 62.1373 29.3942 60.4654 29.3942C60.0253 29.3942 59.5451 29.2739 59.1449 29.0734C57.6741 28.3554 56.4521 27.4592 56.0148 26.5528C54.7027 28.1024 52.8058 29.9957 50.8214 29.9957C50.5813 29.9957 50.3412 29.9556 50.1011 29.9155C48.6205 29.5947 47.5 28.913 46.7797 28.1511C46.476 27.8315 46.2645 27.5466 46.1189 27.2481C44.8618 28.6159 43.2315 29.9957 41.5375 29.9957C41.2974 29.9957 41.0573 29.9556 40.8172 29.9155C39.3366 29.5947 38.2161 28.913 37.4958 28.1511C36.7726 27.3902 36.5722 26.8257 36.5403 25.8068C35.3759 26.8117 33.7633 27.9431 31.1331 29.4343C30.5729 29.7551 30.0526 29.8754 29.3724 29.8754C28.1719 29.8754 26.8513 29.3541 25.0105 28.3917C24.0101 27.8704 23.2898 26.7475 22.8496 25.4643C22.5295 24.542 22.3294 23.5795 22.3294 22.6572C22.3294 22.0958 22.4094 21.5745 22.5695 21.0131C23.0587 19.3057 23.811 17.7053 24.7394 16.1877L24.6929 16.1744C24.3855 16.0864 24.0854 16.0004 23.8901 16.0004C23.69 16.0004 22.1693 16.7623 21.0489 17.4842C17.7275 19.6095 14.7262 22.8176 13.6858 27.5496C13.5257 28.2714 13.2056 28.7927 12.6053 29.314C12.3252 29.5546 12.0051 29.6348 11.7249 29.6348C11.0847 29.6348 10.6445 29.3541 9.92418 28.5521C9.48399 28.0709 9.16386 27.4293 9.16386 26.9481C9.16386 26.0442 9.72699 25.2391 10.2854 24.4407C10.6685 23.8931 11.0494 23.3486 11.2447 22.7775C12.1251 20.2511 12.9655 17.7248 13.6457 15.1583C13.8858 14.2761 14.0459 13.3537 14.0459 13.1532C14.0459 12.9775 13.9606 12.8493 13.8729 12.7178C13.7806 12.5791 13.6858 12.4367 13.6858 12.2309C13.6858 11.6695 14.6862 11.1482 15.7666 11.1482C16.647 11.1482 17.3673 11.5893 17.4874 11.7898C18.0076 12.672 18.1276 13.3938 18.1276 13.9552C18.1276 14.4685 18.0764 14.8022 18.0559 14.9356C18.0508 14.969 18.0476 14.9899 18.0476 14.9979C18.0476 15.0781 18.0876 15.1182 18.1276 15.1182C18.2077 15.1182 18.3277 15.038 18.5278 14.8776C19.8083 13.9151 22.2894 12.271 23.6099 12.271C24.7351 12.271 25.9221 12.5806 26.7637 13.3087C27.5691 12.2895 28.4361 11.305 29.3323 10.3461C30.2127 9.4238 31.7734 8.46137 33.8943 8.46137C34.6946 8.46137 35.695 8.62177 36.5754 8.94258C37.8159 9.3837 38.1761 10.5867 38.1761 11.6294C38.1761 13.2334 36.9756 15.439 36.0552 16.5618C33.5741 19.6095 30.6929 22.6572 27.1714 24.7826C26.7713 25.0232 26.7313 25.0633 26.7313 25.2638C26.7313 25.5044 27.0914 26.2663 27.4516 26.4267C27.6917 26.547 27.9318 26.6272 28.2119 26.6272C29.2479 26.6272 30.4925 25.8507 31.1228 25.4575C31.2228 25.3951 31.3074 25.3424 31.3732 25.3039C32.6826 24.542 33.7802 23.5902 34.8249 22.6843C35.7597 21.8738 36.6521 21.1 37.6158 20.5318C37.6616 20.5043 37.7064 20.4789 37.7502 20.4554C37.8064 20.3117 37.8629 20.1681 37.9193 20.0247L37.9197 20.0238L37.922 20.0179C38.0073 19.8014 38.0924 19.5851 38.1761 19.3689C39.9368 14.9177 43.3783 8.62177 46.3795 3.52891C46.4841 3.35737 46.5865 3.07031 46.707 2.73234L46.707 2.73229L46.707 2.73225C47.0936 1.6481 47.6669 0.0401013 49.1007 0.0401013C49.3716 0.0401013 49.61 0.0292216 49.8385 0.018796C50.0486 0.0092059 50.2503 0 50.4612 0C51.2616 0 51.9819 0.32081 52.1419 0.681722C52.342 1.12284 52.5021 1.48375 52.5021 1.92486C52.5021 2.44618 52.342 2.92739 52.0619 3.36851C51.1582 4.80738 50.2268 6.21595 49.3012 7.61577C46.538 11.7948 43.8263 15.8957 42.0577 20.4917C41.9143 20.8636 41.7656 21.2105 41.6202 21.5498L41.6201 21.55L41.6201 21.55C41.0756 22.8204 40.5771 23.9833 40.5771 25.9455C40.5771 26.6673 40.7772 26.8277 40.9372 26.8277C41.0173 26.8277 41.1373 26.7876 41.2574 26.7074C42.1492 26.1116 42.9004 25.3073 43.6089 24.5487C44.5201 23.573 45.3609 22.6728 46.3398 22.3887C46.5874 21.5889 46.896 20.8052 47.2032 20.0249L47.2035 20.024C47.2896 19.8054 47.3755 19.5872 47.46 19.3689C49.2207 14.9177 52.6622 8.62177 55.6634 3.52891C55.768 3.35737 55.8704 3.07031 55.9909 2.73234L55.9909 2.73229L55.9909 2.73225C56.3775 1.6481 56.9508 0.0401013 58.3846 0.0401013C58.6555 0.0401013 58.8939 0.0292216 59.1224 0.018796C59.3325 0.0092059 59.5342 0 59.7451 0C60.5455 0 61.2658 0.32081 61.4259 0.681722C61.6259 1.12284 61.786 1.48375 61.786 1.92486C61.786 2.44618 61.6259 2.92739 61.3458 3.36851C60.4421 4.80737 59.5108 6.21595 58.5852 7.61576C55.8219 11.7948 53.1102 15.8957 51.3416 20.4917C51.1982 20.8637 51.0495 21.2107 50.904 21.55C50.3595 22.8204 49.861 23.9834 49.861 25.9455C49.861 26.6673 50.0611 26.8277 50.2211 26.8277C50.3012 26.8277 50.4212 26.7876 50.5413 26.7074C51.4331 26.1116 52.1843 25.3073 52.8928 24.5487ZM5.7024 8.75527L5.70238 8.75527L5.70235 8.75528C5.44494 8.77804 4.94475 8.82228 4.20177 8.82228C3.04128 8.82228 1.88079 8.66187 1.28054 7.94005C1.08045 7.69944 1.08045 7.41873 1.08045 7.05782C1.08045 6.336 1.20051 5.53397 1.40059 5.33347C1.60067 5.13296 1.84077 4.89235 2.32098 4.89235C2.65143 4.89235 2.83338 4.93576 3.05417 4.98844C3.39487 5.06972 3.82807 5.17306 5.04212 5.17306C7.123 5.17306 10.0042 4.73195 10.8045 4.57154C12.6453 4.21063 14.6061 3.92992 16.7671 3.92992C18.5278 3.92992 21.0489 5.61418 21.0489 6.2959C21.0489 7.01772 20.7687 7.45884 20.2085 7.85985C19.9684 8.02025 19.2881 8.30096 18.8879 8.30096C18.4077 8.30096 18.1276 8.02025 17.8475 7.73954C17.7275 7.61924 16.9271 7.33853 16.727 7.33853C14.9663 7.33853 13.0455 7.57914 11.4448 7.94005C11.5248 8.06035 11.5649 8.18066 11.5649 8.26086C11.5649 8.37285 11.5149 8.45982 11.2547 8.91308L11.2547 8.91309L11.2547 8.91311L11.2546 8.91321C11.0489 9.27146 10.7119 9.85849 10.1643 10.8674C7.56318 15.6796 5.88248 20.2912 4.762 26.1861C4.64195 26.8277 4.60194 27.6699 4.60194 28.4719C4.60194 29.3942 4.16175 29.9556 3.28138 29.9556C2.68113 29.9556 1.80076 29.6749 0.720303 29.0333C0.160067 28.7125 0 28.111 0 27.5496C0 26.9481 0.120051 26.3465 0.160067 26.1861C1.64069 20.2912 3.3214 14.9578 5.76243 9.70451C6.04254 9.10299 6.08256 8.98268 6.08256 8.90248C6.08256 8.78218 6.00253 8.74208 5.88248 8.74208C5.85159 8.74208 5.79157 8.74738 5.70242 8.75527L5.7024 8.75527ZM33.8542 12.0705C33.8542 12.4314 33.7342 12.672 33.254 13.4339C33.0443 13.7667 32.9643 13.9541 32.8908 14.1265C32.7959 14.3488 32.7117 14.5461 32.3736 14.9979C31.2131 16.5618 29.7725 18.1258 27.8917 19.8501C27.3715 20.3313 27.2915 20.3313 27.2115 20.3313C27.1714 20.3313 27.0914 20.2912 27.0914 20.211C27.0914 20.0907 27.1314 19.9303 27.5316 19.0882C28.7721 16.4816 30.2927 14.7573 31.9735 13.073C32.8938 12.1507 33.4541 11.8299 33.6542 11.8299C33.7742 11.8299 33.8542 11.87 33.8542 12.0705ZM64.7473 13.2334C64.7072 13.1532 64.6672 13.1131 64.6272 13.1131C64.5071 13.1131 64.267 13.1532 63.9469 13.5943C61.9861 16.1608 59.0248 20.8126 59.0248 23.9405C59.0248 24.141 59.0649 24.6623 59.2249 25.1034C59.345 25.4242 59.6651 25.9455 59.8652 25.9455C60.1053 25.9455 60.3854 25.8252 60.8656 25.1034C60.9186 25.0238 60.9716 24.9442 61.0246 24.8646C63.1331 21.6975 65.2275 18.5517 65.2275 14.7573C65.2275 14.3162 65.2275 13.7547 65.0674 13.6344C64.8673 13.474 64.7873 13.3537 64.7473 13.2334Z" fill="#251C15"/>
</svg>
