<svg width="20" height="20" viewBox="0 0 20 20" fill="none" xmlns="http://www.w3.org/2000/svg">
<g opacity="0.2">
<rect opacity="0.01" width="20" height="20" fill="black"/>
<path fill-rule="evenodd" clip-rule="evenodd" d="M1.66667 9.99999C1.66667 5.39762 5.39763 1.66666 10 1.66666C12.2101 1.66666 14.3298 2.54463 15.8926 4.10743C17.4554 5.67024 18.3333 7.78985 18.3333 9.99999C18.3333 14.6024 14.6024 18.3333 10 18.3333C5.39763 18.3333 1.66667 14.6024 1.66667 9.99999ZM3.33334 9.99999C3.33334 13.6819 6.31811 16.6667 10 16.6667C11.7681 16.6667 13.4638 15.9643 14.7141 14.714C15.9643 13.4638 16.6667 11.7681 16.6667 9.99999C16.6667 6.31809 13.6819 3.33332 10 3.33332C6.31811 3.33332 3.33334 6.31809 3.33334 9.99999Z" fill="black"/>
<path d="M12.357 11.1785L11.1785 9.99999L12.357 8.82148C12.6825 8.49605 12.6825 7.96841 12.357 7.64297C12.0316 7.31754 11.5039 7.31754 11.1785 7.64297L10 8.82148L8.82149 7.64297C8.49605 7.31754 7.96841 7.31754 7.64298 7.64297C7.31754 7.96841 7.31754 8.49605 7.64298 8.82148L8.82149 9.99999L7.64298 11.1785C7.31754 11.5039 7.31754 12.0316 7.64298 12.357C7.96841 12.6825 8.49605 12.6825 8.82149 12.357L10 11.1785L11.1785 12.357C11.5039 12.6825 12.0316 12.6825 12.357 12.357C12.6825 12.0316 12.6825 11.5039 12.357 11.1785Z" fill="black"/>
</g>
</svg>
