<svg width="16" height="16" viewBox="0 0 16 16" fill="none" xmlns="http://www.w3.org/2000/svg">
<path fill-rule="evenodd" clip-rule="evenodd" d="M12.0505 10.8632L14.9137 13.7179C15.0731 13.876 15.1628 14.0913 15.1628 14.3158C15.1628 14.5403 15.0731 14.7556 14.9137 14.9137C14.7556 15.0731 14.5403 15.1628 14.3158 15.1628C14.0913 15.1628 13.876 15.0731 13.7179 14.9137L10.8632 12.0505C9.68628 12.9743 8.23297 13.4755 6.73684 13.4737C3.01619 13.4737 0 10.4575 0 6.73684C0 3.01619 3.01619 0 6.73684 0C10.4575 0 13.4737 3.01619 13.4737 6.73684C13.4755 8.23297 12.9743 9.68628 12.0505 10.8632ZM6.73684 1.68421C3.94635 1.68421 1.68421 3.94635 1.68421 6.73684C1.68421 9.52733 3.94635 11.7895 6.73684 11.7895C9.52733 11.7895 11.7895 9.52733 11.7895 6.73684C11.7895 3.94635 9.52733 1.68421 6.73684 1.68421Z" fill="black"/>
</svg>
